<svg xmlns="http://www.w3.org/2000/svg" width="20" height="18" viewBox="0 0 20 18" fill="none">
  <path d="M 20 10 C 20.552 10 21 9.552 21 9 C 21 8.448 20.552 8 20 8 L 20 9 L 20 10 Z M 16 9 L 16 8 C 15.57 8 15.187 8.275 15.051 8.684 L 16 9 Z M 13 18 L 12.051 18.316 C 12.187 18.725 12.57 19 13 19 C 13.43 19 13.813 18.725 13.949 18.316 L 13 18 Z M 7 0 L 7.949 -0.316 C 7.813 -0.725 7.43 -1 7 -1 C 6.57 -1 6.187 -0.725 6.051 -0.316 L 7 0 Z M 4 9 L 4 10 C 4.43 10 4.813 9.725 4.949 9.316 L 4 9 Z M 0 8 C -0.552 8 -1 8.448 -1 9 C -1 9.552 -0.552 10 0 10 L 0 9 L 0 8 Z M 20 9 L 20 8 L 16 8 L 16 9 L 16 10 L 20 10 L 20 9 Z M 16 9 L 15.051 8.684 L 12.051 17.684 L 13 18 L 13.949 18.316 L 16.949 9.316 L 16 9 Z M 13 18 L 13.949 17.684 L 7.949 -0.316 L 7 0 L 6.051 0.316 L 12.051 18.316 L 13 18 Z M 7 0 L 6.051 -0.316 L 3.051 8.684 L 4 9 L 4.949 9.316 L 7.949 0.316 L 7 0 Z M 4 9 L 4 8 L 0 8 L 0 9 L 0 10 L 4 10 L 4 9 Z" fill="currentColor" fill-rule="nonzero"></path>
</svg>