<svg xmlns="http://www.w3.org/2000/svg" width="14" height="14" viewBox="0 0 14 14" fill="none">
  <path d="M 0 6 C -0.552 6 -1 6.448 -1 7 C -1 7.552 -0.552 8 0 8 L 0 7 L 0 6 Z M 14 7 L 14.707 7.707 C 15.098 7.317 15.098 6.683 14.707 6.293 L 14 7 Z M 7.707 -0.707 C 7.317 -1.098 6.683 -1.098 6.293 -0.707 C 5.902 -0.317 5.902 0.317 6.293 0.707 L 7 0 L 7.707 -0.707 Z M 6.293 13.293 C 5.902 13.683 5.902 14.317 6.293 14.707 C 6.683 15.098 7.317 15.098 7.707 14.707 L 7 14 L 6.293 13.293 Z M 0 7 L 0 8 L 14 8 L 14 7 L 14 6 L 0 6 L 0 7 Z M 7 0 L 6.293 0.707 L 13.293 7.707 L 14 7 L 14.707 6.293 L 7.707 -0.707 L 7 0 Z M 14 7 L 13.293 6.293 L 6.293 13.293 L 7 14 L 7.707 14.707 L 14.707 7.707 L 14 7 Z" fill="currentColor" fill-rule="nonzero"></path>
</svg>