<svg xmlns="http://www.w3.org/2000/svg" width="16" height="11" viewBox="0 0 16 11" fill="none">
  <path d="M 16.707 0.707 C 17.098 0.317 17.098 -0.317 16.707 -0.707 C 16.317 -1.098 15.683 -1.098 15.293 -0.707 L 16 0 L 16.707 0.707 Z M 5 11 L 4.293 11.707 C 4.683 12.098 5.317 12.098 5.707 11.707 L 5 11 Z M 0.707 5.293 C 0.317 4.902 -0.317 4.902 -0.707 5.293 C -1.098 5.683 -1.098 6.317 -0.707 6.707 L 0 6 L 0.707 5.293 Z M 16 0 L 15.293 -0.707 L 4.293 10.293 L 5 11 L 5.707 11.707 L 16.707 0.707 L 16 0 Z M 5 11 L 5.707 10.293 L 0.707 5.293 L 0 6 L -0.707 6.707 L 4.293 11.707 L 5 11 Z" fill="currentColor" fill-rule="nonzero"></path>
</svg>