<svg xmlns="http://www.w3.org/2000/svg" width="20" height="20" viewBox="0 0 20 20" fill="none">
  <path d="M 11 6 C 11 5.448 10.552 5 10 5 C 9.448 5 9 5.448 9 6 L 10 6 L 11 6 Z M 9 14 C 9 14.552 9.448 15 10 15 C 10.552 15 11 14.552 11 14 L 10 14 L 9 14 Z M 6 9 C 5.448 9 5 9.448 5 10 C 5 10.552 5.448 11 6 11 L 6 10 L 6 9 Z M 14 11 C 14.552 11 15 10.552 15 10 C 15 9.448 14.552 9 14 9 L 14 10 L 14 11 Z M 20 10 L 19 10 C 19 14.971 14.971 19 10 19 L 10 20 L 10 21 C 16.075 21 21 16.075 21 10 L 20 10 Z M 10 20 L 10 19 C 5.029 19 1 14.971 1 10 L 0 10 L -1 10 C -1 16.075 3.925 21 10 21 L 10 20 Z M 0 10 L 1 10 C 1 5.029 5.029 1 10 1 L 10 0 L 10 -1 C 3.925 -1 -1 3.925 -1 10 L 0 10 Z M 10 0 L 10 1 C 14.971 1 19 5.029 19 10 L 20 10 L 21 10 C 21 3.925 16.075 -1 10 -1 L 10 0 Z M 10 6 L 9 6 L 9 14 L 10 14 L 11 14 L 11 6 L 10 6 Z M 6 10 L 6 11 L 14 11 L 14 10 L 14 9 L 6 9 L 6 10 Z" fill="currentColor" fill-rule="nonzero"></path>
</svg>