<svg xmlns="http://www.w3.org/2000/svg" width="16.865" height="20" viewBox="0 0 16.865 20" fill="none">
  <path d="M 9.432 0 L 10.425 0.124 C 10.48 -0.316 10.238 -0.741 9.831 -0.917 C 9.423 -1.094 8.948 -0.981 8.664 -0.64 L 9.432 0 Z M 8.432 12 L 9.425 12.124 C 9.46 11.839 9.372 11.553 9.182 11.338 C 8.992 11.123 8.719 11 8.432 11 L 8.432 12 Z M 7.432 20 L 6.44 19.876 C 6.385 20.316 6.627 20.741 7.034 20.917 C 7.442 21.094 7.917 20.981 8.201 20.64 L 7.432 20 Z M 8.432 8 L 7.44 7.876 C 7.405 8.161 7.493 8.447 7.683 8.662 C 7.873 8.877 8.146 9 8.432 9 L 8.432 8 Z M 16.339 9.312 L 17.107 9.952 L 16.339 9.312 Z M 16.865 8.508 L 15.865 8.492 L 16.865 8.508 Z M 16.679 8.111 L 17.308 7.333 L 16.679 8.111 Z M 0.526 10.688 L -0.242 10.048 L 0.526 10.688 Z M 0 11.492 L 1 11.508 L 0 11.492 Z M 0.186 11.889 L -0.443 12.667 L 0.186 11.889 Z M 9.432 0 L 8.664 -0.64 L -0.242 10.048 L 0.526 10.688 L 1.294 11.328 L 10.201 0.64 L 9.432 0 Z M 1.141 12 L 1.141 13 L 8.432 13 L 8.432 12 L 8.432 11 L 1.141 11 L 1.141 12 Z M 8.432 12 L 7.44 11.876 L 6.44 19.876 L 7.432 20 L 8.425 20.124 L 9.425 12.124 L 8.432 12 Z M 7.432 20 L 8.201 20.64 L 17.107 9.952 L 16.339 9.312 L 15.571 8.672 L 6.664 19.36 L 7.432 20 Z M 15.724 8 L 15.724 7 L 8.432 7 L 8.432 8 L 8.432 9 L 15.724 9 L 15.724 8 Z M 8.432 8 L 9.425 8.124 L 10.425 0.124 L 9.432 0 L 8.44 -0.124 L 7.44 7.876 L 8.432 8 Z M 16.339 9.312 L 17.107 9.952 C 17.269 9.758 17.435 9.56 17.555 9.387 C 17.662 9.232 17.859 8.925 17.865 8.523 L 16.865 8.508 L 15.865 8.492 C 15.867 8.371 15.898 8.286 15.914 8.25 C 15.927 8.219 15.933 8.215 15.909 8.251 C 15.886 8.284 15.849 8.333 15.789 8.407 C 15.73 8.481 15.66 8.565 15.571 8.672 L 16.339 9.312 Z M 15.724 8 L 15.724 9 C 15.863 9 15.973 9 16.068 9.002 C 16.163 9.003 16.224 9.006 16.264 9.01 C 16.307 9.014 16.301 9.016 16.268 9.007 C 16.231 8.996 16.145 8.965 16.051 8.889 L 16.679 8.111 L 17.308 7.333 C 16.995 7.08 16.633 7.035 16.445 7.018 C 16.235 6.999 15.977 7 15.724 7 L 15.724 8 Z M 16.865 8.508 L 17.865 8.523 C 17.872 8.062 17.666 7.623 17.308 7.333 L 16.679 8.111 L 16.051 8.889 C 15.931 8.792 15.863 8.646 15.865 8.492 L 16.865 8.508 Z M 0.526 10.688 L -0.242 10.048 C -0.404 10.242 -0.57 10.44 -0.69 10.613 C -0.797 10.768 -0.994 11.075 -1 11.477 L 0 11.492 L 1 11.508 C 0.998 11.629 0.967 11.714 0.951 11.75 C 0.938 11.781 0.932 11.785 0.956 11.749 C 0.979 11.716 1.016 11.667 1.076 11.593 C 1.135 11.519 1.205 11.435 1.294 11.328 L 0.526 10.688 Z M 1.141 12 L 1.141 11 C 1.002 11 0.892 11 0.797 10.998 C 0.702 10.997 0.641 10.994 0.601 10.99 C 0.558 10.986 0.564 10.984 0.597 10.993 C 0.634 11.004 0.72 11.035 0.814 11.111 L 0.186 11.889 L -0.443 12.667 C -0.13 12.92 0.232 12.965 0.42 12.982 C 0.63 13.001 0.888 13 1.141 13 L 1.141 12 Z M 0 11.492 L -1 11.477 C -1.007 11.938 -0.801 12.377 -0.443 12.667 L 0.186 11.889 L 0.814 11.111 C 0.934 11.208 1.002 11.354 1 11.508 L 0 11.492 Z" fill="currentColor" fill-rule="nonzero"></path>
</svg>